<mxfile host="app.diagrams.net" agent="Mozilla/5.0 (Macintosh; Intel Mac OS X 10_15_7) AppleWebKit/537.36 (KHTML, like Gecko) Chrome/132.0.0.0 Safari/537.36" version="26.0.14">
  <diagram name="第 1 页" id="QWAvMjlgkS0l0zTdj9ND">
    <mxGraphModel dx="954" dy="581" grid="1" gridSize="10" guides="1" tooltips="1" connect="1" arrows="1" fold="1" page="1" pageScale="1" pageWidth="827" pageHeight="1169" math="0" shadow="0">
      <root>
        <mxCell id="0" />
        <mxCell id="1" parent="0" />
        <mxCell id="waf6uzRhBK3eIZ62U6gV-1" value="Mindmap" style="swimlane;startSize=20;horizontal=1;containerType=tree;" vertex="1" parent="1">
          <mxGeometry x="70" y="110" width="590" height="300" as="geometry" />
        </mxCell>
        <mxCell id="waf6uzRhBK3eIZ62U6gV-4" value="" style="edgeStyle=entityRelationEdgeStyle;startArrow=none;endArrow=none;segment=10;curved=1;sourcePerimeterSpacing=0;targetPerimeterSpacing=0;rounded=0;" edge="1" parent="waf6uzRhBK3eIZ62U6gV-1" source="waf6uzRhBK3eIZ62U6gV-6" target="waf6uzRhBK3eIZ62U6gV-9">
          <mxGeometry relative="1" as="geometry" />
        </mxCell>
        <mxCell id="waf6uzRhBK3eIZ62U6gV-5" value="" style="edgeStyle=entityRelationEdgeStyle;startArrow=none;endArrow=none;segment=10;curved=1;sourcePerimeterSpacing=0;targetPerimeterSpacing=0;rounded=0;" edge="1" parent="waf6uzRhBK3eIZ62U6gV-1" source="waf6uzRhBK3eIZ62U6gV-6" target="waf6uzRhBK3eIZ62U6gV-10">
          <mxGeometry relative="1" as="geometry" />
        </mxCell>
        <mxCell id="waf6uzRhBK3eIZ62U6gV-6" value="Mysql" style="ellipse;whiteSpace=wrap;html=1;align=center;treeFolding=1;treeMoving=1;newEdgeStyle={&quot;edgeStyle&quot;:&quot;entityRelationEdgeStyle&quot;,&quot;startArrow&quot;:&quot;none&quot;,&quot;endArrow&quot;:&quot;none&quot;,&quot;segment&quot;:10,&quot;curved&quot;:1,&quot;sourcePerimeterSpacing&quot;:0,&quot;targetPerimeterSpacing&quot;:0};" vertex="1" parent="waf6uzRhBK3eIZ62U6gV-1">
          <mxGeometry x="160" y="60" width="100" height="40" as="geometry" />
        </mxCell>
        <mxCell id="waf6uzRhBK3eIZ62U6gV-9" value="Topic" style="whiteSpace=wrap;html=1;rounded=1;arcSize=50;align=center;verticalAlign=middle;strokeWidth=1;autosize=1;spacing=4;treeFolding=1;treeMoving=1;newEdgeStyle={&quot;edgeStyle&quot;:&quot;entityRelationEdgeStyle&quot;,&quot;startArrow&quot;:&quot;none&quot;,&quot;endArrow&quot;:&quot;none&quot;,&quot;segment&quot;:10,&quot;curved&quot;:1,&quot;sourcePerimeterSpacing&quot;:0,&quot;targetPerimeterSpacing&quot;:0};" vertex="1" collapsed="1" parent="waf6uzRhBK3eIZ62U6gV-1">
          <mxGeometry x="20" y="40" width="80" height="20" as="geometry" />
        </mxCell>
        <mxCell id="waf6uzRhBK3eIZ62U6gV-10" value="Branch" style="whiteSpace=wrap;html=1;shape=partialRectangle;top=0;left=0;bottom=1;right=0;points=[[0,1],[1,1]];fillColor=none;align=center;verticalAlign=bottom;routingCenterY=0.5;snapToPoint=1;autosize=1;treeFolding=1;treeMoving=1;newEdgeStyle={&quot;edgeStyle&quot;:&quot;entityRelationEdgeStyle&quot;,&quot;startArrow&quot;:&quot;none&quot;,&quot;endArrow&quot;:&quot;none&quot;,&quot;segment&quot;:10,&quot;curved&quot;:1,&quot;sourcePerimeterSpacing&quot;:0,&quot;targetPerimeterSpacing&quot;:0};" vertex="1" parent="waf6uzRhBK3eIZ62U6gV-1">
          <mxGeometry x="20" y="80" width="72" height="26" as="geometry" />
        </mxCell>
        <mxCell id="waf6uzRhBK3eIZ62U6gV-13" value="" style="edgeStyle=entityRelationEdgeStyle;rounded=0;orthogonalLoop=1;jettySize=auto;html=1;startArrow=none;endArrow=none;segment=10;curved=1;sourcePerimeterSpacing=0;targetPerimeterSpacing=0;" edge="1" source="waf6uzRhBK3eIZ62U6gV-6" target="waf6uzRhBK3eIZ62U6gV-14" parent="waf6uzRhBK3eIZ62U6gV-1">
          <mxGeometry relative="1" as="geometry" />
        </mxCell>
        <mxCell id="waf6uzRhBK3eIZ62U6gV-14" value="1.为啥数据结构是 B+树？" style="ellipse;whiteSpace=wrap;html=1;align=center;treeFolding=1;treeMoving=1;newEdgeStyle={&quot;edgeStyle&quot;:&quot;entityRelationEdgeStyle&quot;,&quot;startArrow&quot;:&quot;none&quot;,&quot;endArrow&quot;:&quot;none&quot;,&quot;segment&quot;:10,&quot;curved&quot;:1,&quot;sourcePerimeterSpacing&quot;:0,&quot;targetPerimeterSpacing&quot;:0};" vertex="1" parent="waf6uzRhBK3eIZ62U6gV-1">
          <mxGeometry x="300" y="34" width="100" height="66" as="geometry" />
        </mxCell>
        <mxCell id="waf6uzRhBK3eIZ62U6gV-15" value="" style="edgeStyle=entityRelationEdgeStyle;rounded=0;orthogonalLoop=1;jettySize=auto;html=1;startArrow=none;endArrow=none;segment=10;curved=1;sourcePerimeterSpacing=0;targetPerimeterSpacing=0;" edge="1" source="waf6uzRhBK3eIZ62U6gV-6" target="waf6uzRhBK3eIZ62U6gV-16" parent="waf6uzRhBK3eIZ62U6gV-1">
          <mxGeometry relative="1" as="geometry" />
        </mxCell>
        <mxCell id="waf6uzRhBK3eIZ62U6gV-16" value="" style="ellipse;whiteSpace=wrap;html=1;align=center;treeFolding=1;treeMoving=1;newEdgeStyle={&quot;edgeStyle&quot;:&quot;entityRelationEdgeStyle&quot;,&quot;startArrow&quot;:&quot;none&quot;,&quot;endArrow&quot;:&quot;none&quot;,&quot;segment&quot;:10,&quot;curved&quot;:1,&quot;sourcePerimeterSpacing&quot;:0,&quot;targetPerimeterSpacing&quot;:0};" vertex="1" parent="waf6uzRhBK3eIZ62U6gV-1">
          <mxGeometry x="300" y="120" width="100" height="40" as="geometry" />
        </mxCell>
        <mxCell id="waf6uzRhBK3eIZ62U6gV-17" value="" style="edgeStyle=entityRelationEdgeStyle;rounded=0;orthogonalLoop=1;jettySize=auto;html=1;startArrow=none;endArrow=none;segment=10;curved=1;sourcePerimeterSpacing=0;targetPerimeterSpacing=0;" edge="1" source="waf6uzRhBK3eIZ62U6gV-6" target="waf6uzRhBK3eIZ62U6gV-18" parent="waf6uzRhBK3eIZ62U6gV-1">
          <mxGeometry relative="1" as="geometry" />
        </mxCell>
        <mxCell id="waf6uzRhBK3eIZ62U6gV-18" value="Mysql" style="ellipse;whiteSpace=wrap;html=1;align=center;treeFolding=1;treeMoving=1;newEdgeStyle={&quot;edgeStyle&quot;:&quot;entityRelationEdgeStyle&quot;,&quot;startArrow&quot;:&quot;none&quot;,&quot;endArrow&quot;:&quot;none&quot;,&quot;segment&quot;:10,&quot;curved&quot;:1,&quot;sourcePerimeterSpacing&quot;:0,&quot;targetPerimeterSpacing&quot;:0};" vertex="1" parent="waf6uzRhBK3eIZ62U6gV-1">
          <mxGeometry x="300" y="216" width="100" height="40" as="geometry" />
        </mxCell>
        <mxCell id="waf6uzRhBK3eIZ62U6gV-31" value="" style="edgeStyle=entityRelationEdgeStyle;rounded=0;orthogonalLoop=1;jettySize=auto;html=1;startArrow=none;endArrow=none;segment=10;curved=1;sourcePerimeterSpacing=0;targetPerimeterSpacing=0;" edge="1" target="waf6uzRhBK3eIZ62U6gV-32" source="waf6uzRhBK3eIZ62U6gV-14" parent="waf6uzRhBK3eIZ62U6gV-1">
          <mxGeometry relative="1" as="geometry">
            <mxPoint x="330" y="190" as="sourcePoint" />
          </mxGeometry>
        </mxCell>
        <mxCell id="waf6uzRhBK3eIZ62U6gV-32" value="1.相比较二叉树来说，他会有多个" style="ellipse;whiteSpace=wrap;html=1;align=center;treeFolding=1;treeMoving=1;newEdgeStyle={&quot;edgeStyle&quot;:&quot;entityRelationEdgeStyle&quot;,&quot;startArrow&quot;:&quot;none&quot;,&quot;endArrow&quot;:&quot;none&quot;,&quot;segment&quot;:10,&quot;curved&quot;:1,&quot;sourcePerimeterSpacing&quot;:0,&quot;targetPerimeterSpacing&quot;:0};" vertex="1" parent="waf6uzRhBK3eIZ62U6gV-1">
          <mxGeometry x="440" y="34" width="100" height="66" as="geometry" />
        </mxCell>
      </root>
    </mxGraphModel>
  </diagram>
</mxfile>
